<svg width="176" height="55" viewBox="0 0 176 55" fill="none" xmlns="http://www.w3.org/2000/svg">
<path d="M65.5142 31V34.3012H51.9951C51.0615 34.3012 50.3012 35.0711 50.3012 36.0047V37.7211H62.2163V41.0223H50.2884V49.5142H47V36.0047C47 33.2425 49.2329 31 51.9951 31H65.5142V31Z" fill="#3A3A3A"/>
<path d="M71.4782 31.0029H68.1738V49.5204H71.4782V31.0029Z" fill="#3A3A3A"/>
<path d="M92.6552 31V49.5271L89.3444 46.9734L77.439 37.7981V49.5271H74.1282V31.0642L77.439 33.6179L89.3444 42.7932V31H92.6552Z" fill="#3A3A3A"/>
<path d="M113.123 49.5271H109.415L107.721 46.2131L103.682 38.2825L99.6457 46.2131L97.9518 49.5271H94.2432L95.9274 46.2131L103.682 31L111.439 46.2131L113.123 49.5271Z" fill="#3A3A3A"/>
<path d="M133.254 31V49.5271L129.944 46.9734L118.038 37.7981V49.5271H114.727V31.0642L118.038 33.6179L129.944 42.7932V31H133.254Z" fill="#3A3A3A"/>
<path d="M138.936 40.2617C138.936 43.55 141.608 46.2256 144.9 46.2256H154.162V49.5268H144.9C139.783 49.5268 135.638 45.3787 135.638 40.2649C135.638 35.1511 139.786 31.0029 144.9 31.0029H154.162V34.3041H144.9C141.612 34.3041 138.936 36.9765 138.936 40.2681" fill="#3A3A3A"/>
<path d="M160.11 36.0044V37.7208H172.025V41.022H160.11V44.5221C160.11 45.4556 160.87 46.2256 161.804 46.2256H175.326V49.5268H161.804C159.041 49.5268 156.809 47.2811 156.809 44.5221V36.0076C156.809 33.2454 159.041 31.0029 161.804 31.0029H175.326V34.3041H161.804C160.87 34.3041 160.11 35.0741 160.11 36.0109" fill="#3A3A3A"/>
<path d="M124.842 21.2485L126.527 24.5593H122.818L121.124 21.2485L119.357 17.7773L119.276 17.6297C118.705 16.6833 117.659 16.0449 116.46 16.0449H113.158V24.5593H109.857V6.03223H121.544C122.93 6.03223 124.175 6.59365 125.077 7.49514C125.978 8.40947 126.54 9.66385 126.54 11.0369C126.54 13.0613 125.34 14.8097 123.614 15.5925C123.161 15.801 122.68 15.9454 122.173 15.9999H122.17L124.842 21.2453V21.2485ZM121.548 12.7469C121.791 12.7469 122.019 12.702 122.241 12.5929C122.857 12.317 123.242 11.7139 123.242 11.0434C123.242 10.437 122.924 10.02 122.735 9.82105C122.513 9.61252 122.128 9.33662 121.548 9.33662H113.165V12.7469H121.548Z" fill="#3A3A3A"/>
<path d="M132.484 6.03857H129.18V24.556H132.484V6.03857Z" fill="#3A3A3A"/>
<path d="M104.978 13.7028C105.481 12.9232 105.78 11.9992 105.78 11.0015C105.78 8.23929 103.541 6 100.778 6H89.0974V24.5207H101.712C104.971 24.5207 107.615 21.8803 107.615 18.6177C107.615 16.5644 106.566 14.7615 104.978 13.7028V13.7028ZM92.3986 9.29798H100.778C101.715 9.29798 102.479 10.0615 102.479 10.9983C102.479 11.9351 101.715 12.6986 100.778 12.6986H92.3986V9.29798ZM101.712 21.2195H92.3986V16.0158H101.712C103.149 16.0158 104.314 17.1836 104.314 18.6177C104.314 20.0517 103.146 21.2195 101.712 21.2195Z" fill="#3A3A3A"/>
<path d="M153.652 15.2909C153.652 17.5558 152.837 19.6475 151.464 21.2548C151.297 21.4537 151.124 21.6526 150.934 21.8387C149.263 23.523 146.953 24.556 144.399 24.556H135.137V6.03857H144.399C149.504 6.03857 153.652 10.1739 153.652 15.2909ZM150.35 15.2909C150.35 12.0121 147.678 9.33976 144.399 9.33976H138.435V21.2548H144.399C147.678 21.2548 150.35 18.5824 150.35 15.2909" fill="#3A3A3A"/>
<path d="M65.5174 6.03864V24.5529H62.213V16.0545H50.3044V24.5465H47V6.03223H50.3044V12.7533H62.213V6.03864H65.5174Z" fill="#3A3A3A"/>
<path d="M86.6913 6V6.01283L79.5178 15.2972L79.5082 15.3068L79.1136 15.8137V24.5495H75.8028V15.8683L75.3633 15.3068L75.3537 15.2972L68.1738 6H72.3444L77.439 12.6024L82.5303 6H86.6881H86.6913ZM68.177 24.5367H68.222L68.177 24.5912V24.5367ZM86.6592 24.5367H86.6913V24.5816L86.6592 24.5367Z" fill="#3A3A3A"/>
<path d="M31.9686 26.9235C31.9686 26.9235 33.117 28.0028 33.7539 28.2558C33.7539 28.2558 33.7764 29.8186 33.1009 31.4455C32.9143 31.8906 32.6763 32.3422 32.3739 32.7681C31.9589 33.3446 31.425 33.8698 30.7269 34.2701C30.7141 32.6368 30.0096 32.64 28.739 31.6569C26.8025 30.1549 26.2975 28.0668 26.2975 28.0668C26.2975 28.0668 26.6996 28.1149 27.3237 28.1149C28.4978 28.1149 30.4535 27.9387 31.9718 26.9235M32.7985 23.7178C34.3136 22.7507 34.6803 21.8283 34.6803 21.8283C35.9219 25.1141 34.0755 27.0965 34.0755 27.0965C32.4189 25.7963 32.8017 23.7178 32.8017 23.7178M21.9228 7.60277C22.9328 8.03191 23.9204 8.4066 25.0044 8.73326C24.4511 8.9062 23.8979 9.07593 23.3381 9.22645C22.8878 8.66921 22.4149 8.12798 21.9228 7.60277ZM10.616 0.0352277C13.524 1.30342 16.033 3.45231 17.6832 6.08478C14.0483 4.37784 9.77648 4.06079 5.86174 5.2137C7.56981 5.45068 9.19747 6.22889 10.3619 7.47467C6.66914 6.85659 2.69971 8.18883 0.026622 10.9366C1.41946 10.4274 2.9667 10.3441 4.37562 10.7188C3.11145 11.4234 2.0435 12.4738 1.32296 13.726C0.602414 14.9782 0.232492 16.4257 0.255009 17.8604C0.769683 16.9829 1.58673 16.2848 2.47132 15.9133C2.16252 16.0414 1.81511 17.4281 1.71218 17.7067C1.14282 19.2119 0.698915 20.7715 0.399761 22.3536C-0.401201 26.5745 -0.124564 31.1637 2.39412 34.7953C3.56822 36.4863 5.47573 37.6135 7.17094 38.7216C9.20712 40.0539 11.298 41.3221 13.2827 42.7312C14.8042 43.8104 16.6667 45.0049 17.3969 46.7984C17.3165 46.5998 17.2264 46.3756 17.1299 46.1258C17.3422 46.4717 17.532 46.8304 17.6928 47.2051C17.6156 47.0834 17.5159 46.9489 17.3969 46.7984C17.6735 47.4773 17.8472 47.8168 17.8601 47.6214C19.1371 44.6078 17.9405 41.1747 16.6828 38.1548C18.6707 40.0795 19.8609 42.792 19.9252 45.5494C20.0024 48.7391 18.6836 52.1434 20.115 55C22.2477 51.3491 26.7575 49.7735 29.4821 46.5357C31.3413 44.326 32.2677 41.3637 31.9975 38.4974C32.6216 39.8841 33.0269 41.3669 33.1942 42.8785C36.4269 39.1443 38.0128 34.1452 37.9999 29.2133C37.9935 27.042 37.6847 24.8451 36.8323 22.8467C35.9798 20.8484 34.5516 19.0518 32.6473 17.9917C32.9014 17.6106 33.0205 17.1431 32.9819 16.6883C32.1905 16.6755 31.3992 16.7972 30.6465 17.0406C32.2838 18.0718 33.622 19.5642 34.4712 21.2999C32.866 20.8035 31.1097 20.8099 29.511 21.3159C29.9871 22.4432 30.9553 23.3527 32.1166 23.7531C31.5987 25.2006 30.2155 26.2862 28.6972 26.504C28.0892 26.5104 27.5167 26.4624 26.9698 26.3663C26.9698 26.3663 26.9698 26.3663 26.9666 26.3663C24.7824 25.9916 23.0969 24.8932 21.8359 23.6506C19.655 21.5049 18.7511 18.9301 18.7511 18.9301C17.9083 19.3816 17.2682 20.1566 16.8565 21.0149C15.5891 23.641 15.9236 26.9684 17.2007 29.5208C19.1307 33.3734 23.4765 35.3718 24.998 39.4614C25.7153 41.3925 25.6091 43.6087 24.7117 45.4629C25.2682 43.8905 24.9047 42.1035 24.0748 40.6559C23.2449 39.2084 21.9903 38.0491 20.6908 36.9987C17.3229 34.2765 13.4178 32.0091 10.7962 28.6273C4.87421 19.6763 10.3458 14.5138 10.3458 14.5138C9.81186 14.4914 9.26824 14.5266 8.71818 14.6131C10.7093 13.1399 13.2859 12.4738 15.7596 12.8165C14.4761 11.971 12.99 11.4234 11.4202 11.2344C12.2984 10.6676 13.2602 10.232 14.312 9.95342C12.4206 9.43141 10.3973 9.39298 8.38364 9.76447C11.5071 8.69163 14.9683 8.62758 18.1367 9.60755C16.5348 9.78689 14.9715 10.2737 13.5529 11.0134C15.2192 11.3241 17.2553 12.3585 18.4423 13.505C17.3036 13.4474 16.1488 13.7004 15.1516 14.2896C17.3229 14.2832 19.4877 15.1191 21.0832 16.5858C21.5078 16.9765 21.9067 17.4281 22.0772 17.9789C22.2477 18.5298 22.1415 19.1959 21.6687 19.545C22.6787 19.8748 23.8014 19.8332 24.7824 19.4329C25.7635 19.0325 26.5935 18.2736 27.0792 17.3384C26.0659 17.3736 22.9618 17.7195 22.1447 14.4337C21.9614 13.6843 21.9421 11.8365 20.5879 11.4138C25.8536 10.9942 28.2243 12.951 26.5516 14.0783C27.5006 14.1711 28.4463 13.9149 29.2472 13.4249C29.1765 13.806 29.0414 14.1711 28.858 14.5074C29.8327 14.3441 30.7623 13.8669 31.4732 13.1655C32.1841 12.461 32.6698 11.5419 32.8467 10.5619C32.5412 10.7124 32.2066 10.7989 31.8657 10.8533C31.975 9.87656 31.7402 8.90619 31.2577 8.07995C30.9714 8.99266 30.1125 9.61395 29.2022 9.8029C28.2887 9.98865 27.3301 9.79649 26.468 9.45062C27.388 9.06312 28.1954 8.4002 28.7101 7.56114C27.3655 7.44585 26.0852 7.02952 24.8661 6.45947C23.4893 4.55398 21.9646 1.7838 19.3655 1.35787C20.0828 2.22575 20.7133 3.21853 21.2215 4.31059C19.8416 3.37865 18.4841 2.41149 17.0205 1.61727C15.2931 0.685338 13.3824 0 11.4041 0C11.1436 0 10.8798 0.0128101 10.616 0.0352277Z" fill="#3A3A3A"/>
</svg>
