<svg width="27" height="38" viewBox="0 0 27 38" fill="none" xmlns="http://www.w3.org/2000/svg">
<path d="M21.9898 18.6017C21.9898 18.6017 22.7798 19.3474 23.2179 19.5222C23.2179 19.5222 23.2333 20.602 22.7687 21.726C22.6404 22.0336 22.4766 22.3455 22.2686 22.6398C21.9832 23.0381 21.6159 23.401 21.1358 23.6775C21.1269 22.5491 20.6423 22.5513 19.7683 21.872C18.4363 20.8343 18.089 19.3916 18.089 19.3916C18.089 19.3916 18.3655 19.4248 18.7948 19.4248C19.6024 19.4248 20.9477 19.3031 21.9921 18.6017M22.5607 16.3869C23.6029 15.7187 23.8551 15.0814 23.8551 15.0814C24.7092 17.3516 23.4391 18.7212 23.4391 18.7212C22.2996 17.8229 22.5629 16.3869 22.5629 16.3869M15.0798 5.25283C15.7745 5.54932 16.4538 5.8082 17.1995 6.03389C16.8189 6.15337 16.4383 6.27065 16.0533 6.37464C15.7436 5.98964 15.4183 5.6157 15.0798 5.25283ZM7.30233 0.0243391C9.30256 0.900548 11.0284 2.38523 12.1635 4.20403C9.66322 3.02469 6.72483 2.80564 4.03204 3.60219C5.20696 3.76593 6.32655 4.3036 7.12753 5.16432C4.58742 4.73728 1.85702 5.65774 0.0183121 7.55619C0.976386 7.20438 2.04067 7.14685 3.0098 7.40573C2.14024 7.89252 1.40564 8.61827 0.910007 9.48341C0.414375 10.3486 0.159921 11.3487 0.17541 12.3399C0.529432 11.7337 1.09144 11.2513 1.69992 10.9946C1.48751 11.0832 1.24854 12.0412 1.17774 12.2337C0.786099 13.2737 0.480754 14.3512 0.274979 15.4443C-0.275969 18.3606 -0.0856821 21.5313 1.64682 24.0404C2.45443 25.2087 3.76653 25.9876 4.93259 26.7531C6.33319 27.6736 7.77141 28.5498 9.13661 29.5234C10.1832 30.269 11.4643 31.0943 11.9666 32.3334C11.9113 32.1962 11.8493 32.0414 11.7829 31.8688C11.929 32.1077 12.0595 32.3556 12.1701 32.6144C12.117 32.5304 12.0484 32.4374 11.9666 32.3334C12.1569 32.8025 12.2763 33.037 12.2852 32.9021C13.1636 30.82 12.3405 28.448 11.4754 26.3615C12.8428 27.6913 13.6615 29.5654 13.7057 31.4705C13.7588 33.6743 12.8516 36.0263 13.8363 38C15.3032 35.4776 18.4054 34.389 20.2795 32.152C21.5584 30.6253 22.1956 28.5786 22.0098 26.5982C22.439 27.5563 22.7178 28.5808 22.8329 29.6251C25.0566 27.0452 26.1474 23.5913 26.1385 20.1838C26.1341 18.6836 25.9217 17.1657 25.3354 15.785C24.749 14.4043 23.7666 13.163 22.4567 12.4307C22.6315 12.1674 22.7134 11.8443 22.6868 11.5301C22.1425 11.5213 21.5982 11.6053 21.0804 11.7735C22.2067 12.486 23.1271 13.5171 23.7113 14.7163C22.6072 14.3734 21.3991 14.3778 20.2994 14.7274C20.6269 15.5062 21.2929 16.1346 22.0916 16.4112C21.7354 17.4113 20.784 18.1614 19.7396 18.3119C19.3214 18.3163 18.9275 18.2831 18.5514 18.2167C18.5514 18.2167 18.5514 18.2167 18.5492 18.2167C17.0468 17.9579 15.8874 17.1989 15.02 16.3404C13.5198 14.8579 12.8981 13.079 12.8981 13.079C12.3184 13.3909 11.8781 13.9264 11.5949 14.5194C10.7231 16.3338 10.9532 18.6327 11.8316 20.3962C13.1592 23.058 16.1485 24.4387 17.195 27.2643C17.6885 28.5985 17.6154 30.1296 16.9981 31.4108C17.3809 30.3243 17.1309 29.0897 16.56 28.0896C15.9892 27.0895 15.1262 26.2885 14.2323 25.5627C11.9157 23.682 9.22954 22.1154 7.42624 19.7789C3.35276 13.5945 7.11647 10.0277 7.11647 10.0277C6.74917 10.0122 6.37523 10.0366 5.99687 10.0963C7.36649 9.0785 9.13882 8.61827 10.8403 8.85502C9.9575 8.27088 8.93526 7.89252 7.85549 7.76197C8.45954 7.37033 9.12112 7.06941 9.84465 6.87691C8.54362 6.51625 7.15187 6.4897 5.76675 6.74636C7.91523 6.00513 10.296 5.96087 12.4755 6.63794C11.3736 6.76185 10.2982 7.09818 9.32247 7.6093C10.4686 7.82392 11.8692 8.53861 12.6857 9.33074C11.9024 9.29091 11.1081 9.46571 10.4222 9.87284C11.9157 9.86841 13.4048 10.4459 14.5023 11.4593C14.7943 11.7292 15.0687 12.0412 15.186 12.4218C15.3032 12.8024 15.2302 13.2626 14.905 13.5038C15.5997 13.7317 16.3719 13.7029 17.0468 13.4263C17.7217 13.1498 18.2925 12.6254 18.6266 11.9793C17.9296 12.0036 15.7944 12.2426 15.2324 9.97241C15.1063 9.45465 15.093 8.17795 14.1615 7.88588C17.7836 7.59602 19.4143 8.94795 18.2638 9.7268C18.9165 9.79097 19.567 9.61396 20.1179 9.27542C20.0693 9.53873 19.9763 9.79097 19.8502 10.0233C20.5206 9.91045 21.1601 9.58077 21.6491 9.0962C22.1381 8.60941 22.4722 7.97438 22.5939 7.29731C22.3837 7.40131 22.1536 7.46105 21.919 7.49866C21.9943 6.82381 21.8327 6.15337 21.5008 5.58251C21.3039 6.21312 20.7131 6.64237 20.087 6.77292C19.4586 6.90125 18.7992 6.76849 18.2062 6.52952C18.839 6.26179 19.3944 5.80378 19.7484 5.22406C18.8236 5.14441 17.9429 4.85676 17.1043 4.46291C16.1573 3.14639 15.1085 1.23245 13.3207 0.938163C13.8141 1.53779 14.2478 2.22371 14.5974 2.97822C13.6482 2.33434 12.7144 1.66612 11.7077 1.11739C10.5195 0.473507 9.2052 0 7.84442 0C7.6652 0 7.48376 0.00885059 7.30233 0.0243391Z" fill="#3A3A3A"/>
</svg>
