<svg width="28" height="38" viewBox="0 0 28 38" fill="none" xmlns="http://www.w3.org/2000/svg">
<path d="M22.9205 18.6017C22.9205 18.6017 23.7104 19.3474 24.1485 19.5222C24.1485 19.5222 24.164 20.602 23.6994 21.726C23.571 22.0336 23.4073 22.3455 23.1993 22.6398C22.9139 23.0381 22.5466 23.401 22.0664 23.6775C22.0576 22.5491 21.573 22.5513 20.699 21.872C19.367 20.8343 19.0196 19.3916 19.0196 19.3916C19.0196 19.3916 19.2962 19.4248 19.7255 19.4248C20.5331 19.4248 21.8784 19.3031 22.9227 18.6017M23.4914 16.3869C24.5335 15.7187 24.7858 15.0814 24.7858 15.0814C25.6398 17.3516 24.3698 18.7212 24.3698 18.7212C23.2303 17.8229 23.4936 16.3869 23.4936 16.3869M16.0104 5.25283C16.7052 5.54932 17.3845 5.8082 18.1301 6.03389C17.7496 6.15337 17.369 6.27065 16.984 6.37464C16.6742 5.98964 16.349 5.6157 16.0104 5.25283ZM8.23299 0.0243391C10.2332 0.900548 11.9591 2.38523 13.0942 4.20403C10.5939 3.02469 7.65549 2.80564 4.96271 3.60219C6.13762 3.76593 7.25722 4.3036 8.05819 5.16432C5.51808 4.73728 2.78768 5.65774 0.948976 7.55619C1.90705 7.20438 2.97133 7.14685 3.94047 7.40573C3.0709 7.89252 2.3363 8.61827 1.84067 9.48341C1.34504 10.3486 1.09059 11.3487 1.10607 12.3399C1.4601 11.7337 2.02211 11.2513 2.63058 10.9946C2.41817 11.0832 2.1792 12.0412 2.1084 12.2337C1.71676 13.2737 1.41142 14.3512 1.20564 15.4443C0.654695 18.3606 0.844982 21.5313 2.57748 24.0404C3.38509 25.2087 4.69719 25.9876 5.86325 26.7531C7.26385 27.6736 8.70207 28.5498 10.0673 29.5234C11.1139 30.269 12.395 31.0943 12.8972 32.3334C12.8419 32.1962 12.78 32.0414 12.7136 31.8688C12.8596 32.1077 12.9902 32.3556 13.1008 32.6144C13.0477 32.5304 12.9791 32.4374 12.8972 32.3334C13.0875 32.8025 13.207 33.037 13.2159 32.9021C14.0943 30.82 13.2712 28.448 12.406 26.3615C13.7734 27.6913 14.5921 29.5654 14.6364 31.4705C14.6895 33.6743 13.7823 36.0263 14.7669 38C16.2339 35.4776 19.336 34.389 21.2101 32.152C22.489 30.6253 23.1263 28.5786 22.9404 26.5982C23.3697 27.5563 23.6485 28.5808 23.7635 29.6251C25.9872 27.0452 27.0781 23.5913 27.0692 20.1838C27.0648 18.6836 26.8524 17.1657 26.266 15.785C25.6797 14.4043 24.6973 13.163 23.3874 12.4307C23.5622 12.1674 23.644 11.8443 23.6175 11.5301C23.0732 11.5213 22.5289 11.6053 22.0111 11.7735C23.1373 12.486 24.0578 13.5171 24.6419 14.7163C23.5378 14.3734 22.3297 14.3778 21.23 14.7274C21.5575 15.5062 22.2235 16.1346 23.0223 16.4112C22.666 17.4113 21.7146 18.1614 20.6702 18.3119C20.2521 18.3163 19.8582 18.2831 19.4821 18.2167C19.4821 18.2167 19.4821 18.2167 19.4798 18.2167C17.9775 17.9579 16.818 17.1989 15.9507 16.3404C14.4505 14.8579 13.8288 13.079 13.8288 13.079C13.249 13.3909 12.8087 13.9264 12.5255 14.5194C11.6537 16.3338 11.8838 18.6327 12.7623 20.3962C14.0899 23.058 17.0791 24.4387 18.1257 27.2643C18.6191 28.5985 18.5461 30.1296 17.9288 31.4108C18.3116 30.3243 18.0615 29.0897 17.4907 28.0896C16.9198 27.0895 16.0569 26.2885 15.163 25.5627C12.8463 23.682 10.1602 22.1154 8.3569 19.7789C4.28343 13.5945 8.04713 10.0277 8.04713 10.0277C7.67983 10.0122 7.3059 10.0366 6.92753 10.0963C8.29716 9.0785 10.0695 8.61827 11.771 8.85502C10.8882 8.27088 9.86592 7.89252 8.78615 7.76197C9.3902 7.37033 10.0518 7.06941 10.7753 6.87691C9.47428 6.51625 8.08253 6.4897 6.69742 6.74636C8.84589 6.00513 11.2267 5.96087 13.4061 6.63794C12.3043 6.76185 11.2289 7.09818 10.2531 7.6093C11.3993 7.82392 12.7999 8.53861 13.6163 9.33074C12.8331 9.29091 12.0387 9.46571 11.3528 9.87284C12.8463 9.86841 14.3355 10.4459 15.4329 11.4593C15.725 11.7292 15.9994 12.0412 16.1166 12.4218C16.2339 12.8024 16.1609 13.2626 15.8356 13.5038C16.5304 13.7317 17.3026 13.7029 17.9775 13.4263C18.6523 13.1498 19.2232 12.6254 19.5573 11.9793C18.8603 12.0036 16.7251 12.2426 16.1631 9.97241C16.037 9.45465 16.0237 8.17795 15.0922 7.88588C18.7143 7.59602 20.345 8.94795 19.1944 9.7268C19.8471 9.79097 20.4977 9.61396 21.0486 9.27542C20.9999 9.53873 20.907 9.79097 20.7809 10.0233C21.4513 9.91045 22.0908 9.58077 22.5798 9.0962C23.0688 8.60941 23.4029 7.97438 23.5246 7.29731C23.3144 7.40131 23.0842 7.46105 22.8497 7.49866C22.9249 6.82381 22.7634 6.15337 22.4315 5.58251C22.2346 6.21312 21.6438 6.64237 21.0176 6.77292C20.3892 6.90125 19.7299 6.76849 19.1369 6.52952C19.7697 6.26179 20.3251 5.80378 20.6791 5.22406C19.7542 5.14441 18.8736 4.85676 18.035 4.46291C17.088 3.14639 16.0392 1.23245 14.2514 0.938163C14.7448 1.53779 15.1785 2.22371 15.5281 2.97822C14.5788 2.33434 13.6451 1.66612 12.6384 1.11739C11.4502 0.473507 10.1359 0 8.77509 0C8.59586 0 8.41443 0.00885059 8.23299 0.0243391Z" fill="white"/>
</svg>
