<svg width="392" height="392" viewBox="0 0 392 392" fill="none" xmlns="http://www.w3.org/2000/svg">
<circle cx="196" cy="196" r="196" fill="#D9D9D9"/>
<path d="M259.497 198.18C259.497 198.18 265.11 203.484 268.235 204.722C268.235 204.722 268.347 212.399 265.041 220.385C264.128 222.577 262.966 224.787 261.477 226.876C259.454 229.695 256.828 232.283 253.419 234.251C253.359 226.239 249.898 226.239 243.682 221.417C234.204 214.041 231.724 203.794 231.724 203.794C231.724 203.794 233.696 204.035 236.743 204.035C242.485 204.035 252.059 203.166 259.497 198.18M263.552 182.449C270.964 177.695 272.763 173.173 272.763 173.173C278.85 189.3 269.802 199.04 269.802 199.04C261.683 192.653 263.56 182.449 263.56 182.449M210.314 103.335C215.247 105.45 220.093 107.281 225.388 108.888C222.676 109.731 219.964 110.564 217.235 111.304C215.031 108.57 212.724 105.905 210.314 103.335M154.967 66.1805C169.197 72.4044 181.482 82.961 189.557 95.8816C171.763 87.5085 150.851 85.9354 131.688 91.6005C140.056 92.761 148.019 96.5865 153.718 102.699C135.648 99.6554 116.226 106.197 103.141 119.685C109.967 117.175 117.535 116.771 124.431 118.619C118.241 122.075 113.015 127.233 109.485 133.38C105.964 139.526 104.148 146.636 104.251 153.676C106.774 149.369 110.777 145.948 115.107 144.117C113.6 144.753 111.904 151.561 111.388 152.92C108.607 160.313 106.421 167.955 104.957 175.726C101.04 196.452 102.383 218.984 114.711 236.813C120.453 245.117 129.803 250.645 138.093 256.087C148.062 262.637 158.298 268.844 168.018 275.773C175.465 281.077 184.581 286.94 188.154 295.742C187.758 294.771 187.328 293.662 186.854 292.433C187.887 294.135 188.826 295.897 189.609 297.737C189.239 297.144 188.74 296.473 188.154 295.742C189.506 299.078 190.367 300.737 190.418 299.783C196.668 284.997 190.814 268.13 184.659 253.301C194.387 262.74 200.215 276.074 200.534 289.613C200.913 305.276 194.456 321.979 201.455 336C211.898 318.076 233.971 310.339 247.306 294.444C256.397 283.604 260.934 269.059 259.617 254.969C262.682 261.778 264.662 269.059 265.471 276.478C281.295 258.15 289.06 233.598 289 209.39C288.974 198.722 287.459 187.942 283.292 178.125C279.125 168.307 272.126 159.487 262.811 154.286C264.059 152.421 264.645 150.126 264.455 147.891C260.581 147.83 256.699 148.415 253.023 149.619C261.038 154.682 267.598 162.006 271.739 170.525C263.887 168.084 255.278 168.118 247.453 170.611C249.777 176.147 254.529 180.609 260.203 182.578C257.672 189.678 250.896 195.008 243.467 196.083C240.497 196.109 237.682 195.876 235.013 195.412C235.013 195.412 235.004 195.412 234.987 195.412C224.303 193.573 216.047 188.174 209.875 182.088C199.199 171.557 194.766 158.92 194.766 158.92C190.642 161.146 187.517 164.938 185.485 169.15C179.278 182.036 180.914 198.378 187.173 210.912C196.617 229.824 217.898 239.633 225.336 259.723C228.84 269.205 228.332 280.088 223.942 289.192C226.662 281.472 224.88 272.695 220.817 265.594C216.753 258.476 210.615 252.803 204.244 247.636C187.758 234.277 168.638 223.145 155.81 206.545C126.815 162.608 153.606 137.257 153.606 137.257C150.989 137.145 148.329 137.308 145.634 137.747C155.388 130.517 168.001 127.242 180.096 128.918C173.82 124.757 166.546 122.084 158.858 121.155C163.154 118.379 167.863 116.23 173.011 114.863C163.756 112.292 153.847 112.112 143.982 113.926C159.262 108.656 176.214 108.347 191.727 113.161C183.893 114.046 176.231 116.427 169.292 120.064C177.445 121.585 187.422 126.666 193.233 132.305C187.655 132.021 181.999 133.268 177.135 136.156C187.767 136.122 198.364 140.231 206.173 147.435C208.256 149.352 210.202 151.57 211.037 154.278C211.872 156.986 211.355 160.261 209.031 161.972C213.964 163.588 219.465 163.382 224.269 161.413C229.073 159.444 233.127 155.722 235.512 151.123C230.553 151.295 215.35 152.997 211.364 136.853C210.46 133.182 210.374 124.104 203.745 122.015C229.52 119.96 241.125 129.563 232.929 135.09C237.578 135.546 242.201 134.291 246.118 131.875C245.774 133.741 245.111 135.537 244.207 137.188C248.985 136.388 253.531 134.042 257 130.603C260.47 127.156 262.854 122.625 263.724 117.82C262.226 118.559 260.581 118.989 258.92 119.247C259.445 114.45 258.309 109.696 255.95 105.639C254.547 110.117 250.345 113.178 245.886 114.098C241.409 115.009 236.726 114.063 232.499 112.37C237.01 110.461 240.953 107.212 243.475 103.094C236.898 102.527 230.622 100.481 224.656 97.6782C217.915 88.3338 210.451 74.7255 197.727 72.6193C201.24 76.8746 204.322 81.7489 206.818 87.1217C200.06 82.5569 193.423 77.803 186.26 73.9088C177.875 69.3698 168.517 66 158.823 66C157.541 66 156.258 66.0602 154.967 66.1805" fill="#3A3A3A"/>
</svg>
