<svg width="88" height="88" viewBox="0 0 88 88" fill="none" xmlns="http://www.w3.org/2000/svg">
<rect width="88" height="88" rx="44" fill="#3A3A3A"/>
<path d="M40.5714 64.5714V47.4286H23.4286C21.5429 47.4286 20 45.8857 20 44C20 42.1143 21.5429 40.5714 23.4286 40.5714H40.5714V23.4286C40.5714 21.5429 42.1143 20 44 20C45.8857 20 47.4286 21.5429 47.4286 23.4286V40.5714H64.5714C66.4571 40.5714 68 42.1143 68 44C68 45.8857 66.4571 47.4286 64.5714 47.4286H47.4286V64.5714C47.4286 66.4571 45.8857 68 44 68C42.1143 68 40.5714 66.4571 40.5714 64.5714Z" fill="white"/>
</svg>
