<svg width="26" height="24" viewBox="0 0 26 24" fill="none" xmlns="http://www.w3.org/2000/svg">
<path d="M19.5068 7.67306C19.0444 7.40883 18.4498 7.40883 17.9214 7.67306L14.2222 9.85295L11.712 11.2402L8.07882 13.4201C7.61642 13.6843 7.0219 13.6843 6.49344 13.4201L3.65297 11.7026C3.19057 11.4383 2.86028 10.9099 2.86028 10.3154V7.01248C2.86028 6.48402 3.12451 5.95556 3.65297 5.62528L6.49344 3.97384C6.95584 3.70961 7.55036 3.70961 8.07882 3.97384L10.9193 5.69133C11.3817 5.95556 11.712 6.48402 11.712 7.07854V9.25844L14.2222 7.80517V5.55922C14.2222 5.03076 13.9579 4.5023 13.4295 4.17201L8.14488 1.06731C7.68247 0.803083 7.08796 0.803083 6.5595 1.06731L1.14279 4.23807C0.614327 4.5023 0.350098 5.03076 0.350098 5.55922V11.7686C0.350098 12.2971 0.614327 12.8255 1.14279 13.1558L6.49344 16.2605C6.95584 16.5248 7.55036 16.5248 8.07882 16.2605L11.712 14.1467L14.2222 12.6934L17.8553 10.5796C18.3177 10.3154 18.9122 10.3154 19.4407 10.5796L22.2812 12.231C22.7436 12.4953 23.0739 13.0237 23.0739 13.6182V16.9211C23.0739 17.4496 22.8096 17.978 22.2812 18.3083L19.5068 19.9597C19.0444 20.224 18.4498 20.224 17.9214 19.9597L15.0809 18.3083C14.6185 18.0441 14.2882 17.5156 14.2882 16.9211V14.8073L11.778 16.2605V18.4404C11.778 18.9689 12.0423 19.4973 12.5707 19.8276L17.9214 22.9323C18.3838 23.1966 18.9783 23.1966 19.5068 22.9323L24.8574 19.8276C25.3198 19.5634 25.6501 19.0349 25.6501 18.4404V12.165C25.6501 11.6365 25.3859 11.108 24.8574 10.7778L19.5068 7.67306Z" fill="#8247E5"/>
</svg>
