<svg width="26" height="26" viewBox="0 0 26 26" fill="none" xmlns="http://www.w3.org/2000/svg">
<path fill-rule="evenodd" clip-rule="evenodd" d="M25.5 12.9999C25.5 20.057 19.9036 25.7777 13 25.7777C6.09644 25.7777 0.5 20.057 0.5 12.9999C0.5 5.94297 6.09644 0.222168 13 0.222168C19.9036 0.222168 25.5 5.94297 25.5 12.9999ZM9.45786 18.0849H7.03196C6.5222 18.0849 6.27041 18.0849 6.11688 17.9845C5.95105 17.8746 5.84972 17.6925 5.83743 17.4916C5.82821 17.3064 5.95413 17.0804 6.20593 16.6283L12.1958 5.8358C12.4506 5.3775 12.5796 5.14835 12.7424 5.0636C12.9174 4.97257 13.1262 4.97257 13.3012 5.0636C13.464 5.14835 13.593 5.3775 13.8478 5.8358L15.0792 8.0331L15.0855 8.04431C15.3608 8.53598 15.5004 8.7853 15.5613 9.04698C15.6289 9.33264 15.6289 9.63398 15.5613 9.91963C15.4999 10.1833 15.3617 10.4344 15.0823 10.9335L11.936 16.6189L11.9278 16.6335C11.6507 17.1292 11.5103 17.3805 11.3157 17.57C11.1038 17.7772 10.8489 17.9278 10.5695 18.0127C10.3146 18.0849 10.029 18.0849 9.45786 18.0849ZM15.5841 18.0849H19.0601C19.5729 18.0849 19.8309 18.0849 19.9845 17.9814C20.1503 17.8715 20.2547 17.6862 20.264 17.4854C20.2728 17.3063 20.1496 17.089 19.9083 16.6633C19.9 16.6488 19.8916 16.634 19.8832 16.619L18.142 13.5742L18.1222 13.5399C17.8775 13.117 17.754 12.9034 17.5954 12.8208C17.4204 12.7298 17.2145 12.7298 17.0396 12.8208C16.8799 12.9056 16.7509 13.1284 16.4961 13.5773L14.7611 16.6221L14.7551 16.6326C14.5012 17.0808 14.3742 17.3047 14.3834 17.4885C14.3957 17.6894 14.497 17.8746 14.6628 17.9845C14.8133 18.0849 15.0712 18.0849 15.5841 18.0849Z" fill="#FF4444"/>
</svg>
